<?xml version="1.0" encoding="utf-8"?>
<!-- Generator: Adobe Illustrator 26.0.1, SVG Export Plug-In . SVG Version: 6.00 Build 0)  -->
<svg version="1.1" id="Layer_1" xmlns="http://www.w3.org/2000/svg" xmlns:xlink="http://www.w3.org/1999/xlink" x="0px" y="0px"
	 viewBox="0 0 3207.2 2366" enable-background="new 0 0 3207.2 2366" xml:space="preserve">
<g>
	<g>
		<defs>
			<path id="SVGID_1_" d="M2456.9,372.3c-32.1,0-64.7,6.7-95.9,20.7L437.8,1260.9c-117.5,53-169.8,191.3-116.8,308.9L482.7,1928
				c39,86.4,124,137.5,213,137.5c32.1,0,64.7-6.7,95.9-20.7l1923.1-867.8c117.5-53,169.8-191.3,116.8-308.9l-161.7-358.2
				C2630.9,423.5,2545.9,372.3,2456.9,372.3"/>
		</defs>
		<clipPath id="SVGID_00000111163842263709428170000009736591773007405981_">
			<use xlink:href="#SVGID_1_"  overflow="visible"/>
		</clipPath>
		<g clip-path="url(#SVGID_00000111163842263709428170000009736591773007405981_)">
			
				<image overflow="visible" width="899" height="884" xlink:href="C440BBCF.jpg"  transform="matrix(0.24 0 0 -0.24 554.4 2065.76)">
			</image>
		</g>
		<g clip-path="url(#SVGID_00000111163842263709428170000009736591773007405981_)">
			
				<image overflow="visible" width="302" height="2795" xlink:href="C440BBCD.jpg"  transform="matrix(0.24 0 0 -0.24 769.4399 2065.76)">
			</image>
		</g>
		<g clip-path="url(#SVGID_00000111163842263709428170000009736591773007405981_)">
			
				<image overflow="visible" width="152" height="3530" xlink:href="C440BBD3.jpg"  transform="matrix(0.24 0 0 -0.24 518.64 2030.4801)">
			</image>
		</g>
		<g clip-path="url(#SVGID_00000111163842263709428170000009736591773007405981_)">
			
				<image overflow="visible" width="301" height="2795" xlink:href="C440BBD5.jpg"  transform="matrix(0.24 0 0 -0.24 841.2 2030.4801)">
			</image>
		</g>
		<g clip-path="url(#SVGID_00000111163842263709428170000009736591773007405981_)">
			
				<image overflow="visible" width="153" height="3236" xlink:href="C440BBD7.jpg"  transform="matrix(0.24 0 0 -0.24 482.64 1995.2001)">
			</image>
		</g>
		<g clip-path="url(#SVGID_00000111163842263709428170000009736591773007405981_)">
			
				<image overflow="visible" width="302" height="2795" xlink:href="C440BBD4.jpg"  transform="matrix(0.24 0 0 -0.24 912.72 1995.2001)">
			</image>
		</g>
		<g clip-path="url(#SVGID_00000111163842263709428170000009736591773007405981_)">
			
				<image overflow="visible" width="152" height="3089" xlink:href="C440BBDC.jpg"  transform="matrix(0.24 0 0 -0.24 446.88 1959.92)">
			</image>
		</g>
		<g clip-path="url(#SVGID_00000111163842263709428170000009736591773007405981_)">
			
				<image overflow="visible" width="451" height="1766" xlink:href="C440BBDD.jpg"  transform="matrix(0.24 0 0 -0.24 984.4799 1959.92)">
			</image>
		</g>
		<g clip-path="url(#SVGID_00000111163842263709428170000009736591773007405981_)">
			
				<image overflow="visible" width="302" height="2795" xlink:href="C440BBDF.jpg"  transform="matrix(0.24 0 0 -0.24 1091.9999 1924.64)">
			</image>
		</g>
		<g clip-path="url(#SVGID_00000111163842263709428170000009736591773007405981_)">
			
				<image overflow="visible" width="302" height="2796" xlink:href="5D5B24FC.jpg"  transform="matrix(0.24 0 0 -0.24 1163.7599 1889.6001)">
			</image>
		</g>
		<g clip-path="url(#SVGID_00000111163842263709428170000009736591773007405981_)">
			
				<image overflow="visible" width="152" height="2502" xlink:href="5D5B24FB.jpg"  transform="matrix(0.24 0 0 -0.24 411.12 1854.3201)">
			</image>
		</g>
		<g clip-path="url(#SVGID_00000111163842263709428170000009736591773007405981_)">
			
				<image overflow="visible" width="899" height="885" xlink:href="5D5B24F4.jpg"  transform="matrix(0.24 0 0 -0.24 554.4 1854.3201)">
			</image>
		</g>
		<g clip-path="url(#SVGID_00000111163842263709428170000009736591773007405981_)">
			
				<image overflow="visible" width="301" height="2796" xlink:href="5D5B24F7.jpg"  transform="matrix(0.24 0 0 -0.24 1235.5199 1854.3201)">
			</image>
		</g>
		<g clip-path="url(#SVGID_00000111163842263709428170000009736591773007405981_)">
			
				<image overflow="visible" width="302" height="2796" xlink:href="5D5B24F5.jpg"  transform="matrix(0.24 0 0 -0.24 1307.0399 1819.04)">
			</image>
		</g>
		<g clip-path="url(#SVGID_00000111163842263709428170000009736591773007405981_)">
			
				<image overflow="visible" width="153" height="2208" xlink:href="5D5B24EB.jpg"  transform="matrix(0.24 0 0 -0.24 375.12 1783.76)">
			</image>
		</g>
		<g clip-path="url(#SVGID_00000111163842263709428170000009736591773007405981_)">
			
				<image overflow="visible" width="302" height="2796" xlink:href="5D5B24EC.jpg"  transform="matrix(0.24 0 0 -0.24 1378.7999 1783.76)">
			</image>
		</g>
		<g clip-path="url(#SVGID_00000111163842263709428170000009736591773007405981_)">
			
				<image overflow="visible" width="451" height="1767" xlink:href="5D5B24EF.jpg"  transform="matrix(0.24 0 0 -0.24 1450.5599 1748.4801)">
			</image>
		</g>
		<g clip-path="url(#SVGID_00000111163842263709428170000009736591773007405981_)">
			
				<image overflow="visible" width="152" height="1767" xlink:href="5D5B24ED.jpg"  transform="matrix(0.24 0 0 -0.24 339.36 1713.2001)">
			</image>
		</g>
		<g clip-path="url(#SVGID_00000111163842263709428170000009736591773007405981_)">
			
				<image overflow="visible" width="301" height="2796" xlink:href="5D5B24EA.jpg"  transform="matrix(0.24 0 0 -0.24 1558.08 1713.2001)">
			</image>
		</g>
		<g clip-path="url(#SVGID_00000111163842263709428170000009736591773007405981_)">
			
				<image overflow="visible" width="302" height="2796" xlink:href="5D5B250F.jpg"  transform="matrix(0.24 0 0 -0.24 1629.5999 1677.92)">
			</image>
		</g>
		<g clip-path="url(#SVGID_00000111163842263709428170000009736591773007405981_)">
			
				<image overflow="visible" width="152" height="1326" xlink:href="5D5B2509.jpg"  transform="matrix(0.24 0 0 -0.24 303.6 1642.6401)">
			</image>
		</g>
		<g clip-path="url(#SVGID_00000111163842263709428170000009736591773007405981_)">
			
				<image overflow="visible" width="899" height="885" xlink:href="5D5B250B.jpg"  transform="matrix(0.24 0 0 -0.24 554.4 1642.64)">
			</image>
		</g>
		<g clip-path="url(#SVGID_00000111163842263709428170000009736591773007405981_)">
			
				<image overflow="visible" width="302" height="2796" xlink:href="5D5B2506.jpg"  transform="matrix(0.24 0 0 -0.24 1701.3599 1642.6401)">
			</image>
		</g>
		<g clip-path="url(#SVGID_00000111163842263709428170000009736591773007405981_)">
			
				<image overflow="visible" width="301" height="2796" xlink:href="5D5B2507.jpg"  transform="matrix(0.24 0 0 -0.24 1773.1199 1607.3601)">
			</image>
		</g>
		<g clip-path="url(#SVGID_00000111163842263709428170000009736591773007405981_)">
			
				<image overflow="visible" width="451" height="1767" xlink:href="5D5B2539.jpg"  transform="matrix(0.24 0 0 -0.24 1844.6399 1572.0801)">
			</image>
		</g>
		<g clip-path="url(#SVGID_00000111163842263709428170000009736591773007405981_)">
			
				<image overflow="visible" width="153" height="444" xlink:href="5D5B253B.jpg"  transform="matrix(0.24 0 0 -0.24 267.6 1536.8)">
			</image>
		</g>
		<g clip-path="url(#SVGID_00000111163842263709428170000009736591773007405981_)">
			
				<image overflow="visible" width="451" height="1767" xlink:href="5D5B253E.jpg"  transform="matrix(0.24 0 0 -0.24 984.4799 1536.8002)">
			</image>
		</g>
		<g clip-path="url(#SVGID_00000111163842263709428170000009736591773007405981_)">
			
				<image overflow="visible" width="302" height="2796" xlink:href="5D5B253F.jpg"  transform="matrix(0.24 0 0 -0.24 1952.1599 1536.8)">
			</image>
		</g>
		<g clip-path="url(#SVGID_00000111163842263709428170000009736591773007405981_)">
			
				<image overflow="visible" width="302" height="2796" xlink:href="5D5B253A.jpg"  transform="matrix(0.24 0 0 -0.24 2023.9199 1501.5201)">
			</image>
		</g>
		<g clip-path="url(#SVGID_00000111163842263709428170000009736591773007405981_)">
			
				<image overflow="visible" width="301" height="2796" xlink:href="5D5B255E.jpg"  transform="matrix(0.24 0 0 -0.24 2095.6799 1466.2401)">
			</image>
		</g>
		<g clip-path="url(#SVGID_00000111163842263709428170000009736591773007405981_)">
			
				<image overflow="visible" width="899" height="885" xlink:href="5D5B2561.jpg"  transform="matrix(0.24 0 0 -0.24 554.4 1430.9601)">
			</image>
		</g>
		<g clip-path="url(#SVGID_00000111163842263709428170000009736591773007405981_)">
			
				<image overflow="visible" width="302" height="2796" xlink:href="5D5B2562.jpg"  transform="matrix(0.24 0 0 -0.24 2167.2 1430.9601)">
			</image>
		</g>
		<g clip-path="url(#SVGID_00000111163842263709428170000009736591773007405981_)">
			
				<image overflow="visible" width="302" height="1326" xlink:href="5D5B2560.jpg"  transform="matrix(0.24 0 0 -0.24 769.4399 1395.6801)">
			</image>
		</g>
		<g clip-path="url(#SVGID_00000111163842263709428170000009736591773007405981_)">
			
				<image overflow="visible" width="302" height="2796" xlink:href="5D5B2566.jpg"  transform="matrix(0.24 0 0 -0.24 2238.9597 1395.6801)">
			</image>
		</g>
		<g clip-path="url(#SVGID_00000111163842263709428170000009736591773007405981_)">
			
				<image overflow="visible" width="301" height="1326" xlink:href="5D5B2563.jpg"  transform="matrix(0.24 0 0 -0.24 841.2 1360.4)">
			</image>
		</g>
		<g clip-path="url(#SVGID_00000111163842263709428170000009736591773007405981_)">
			
				<image overflow="visible" width="451" height="1767" xlink:href="5D5B256E.jpg"  transform="matrix(0.24 0 0 -0.24 2310.7197 1360.4001)">
			</image>
		</g>
		<g clip-path="url(#SVGID_00000111163842263709428170000009736591773007405981_)">
			
				<image overflow="visible" width="302" height="1326" xlink:href="5D5B256F.jpg"  transform="matrix(0.24 0 0 -0.24 912.72 1325.1201)">
			</image>
		</g>
		<g clip-path="url(#SVGID_00000111163842263709428170000009736591773007405981_)">
			
				<image overflow="visible" width="451" height="1767" xlink:href="5D5B2564.jpg"  transform="matrix(0.24 0 0 -0.24 1450.5599 1325.1201)">
			</image>
		</g>
		<g clip-path="url(#SVGID_00000111163842263709428170000009736591773007405981_)">
			
				<image overflow="visible" width="302" height="2796" xlink:href="5D5B2565.jpg"  transform="matrix(0.24 0 0 -0.24 2418.2397 1325.1201)">
			</image>
		</g>
		<g clip-path="url(#SVGID_00000111163842263709428170000009736591773007405981_)">
			
				<image overflow="visible" width="301" height="2796" xlink:href="5D5B254D.jpg"  transform="matrix(0.24 0 0 -0.24 2489.9998 1289.8401)">
			</image>
		</g>
		<g clip-path="url(#SVGID_00000111163842263709428170000009736591773007405981_)">
			
				<image overflow="visible" width="302" height="1326" xlink:href="5D5B254F.jpg"  transform="matrix(0.24 0 0 -0.24 1091.9999 1254.5601)">
			</image>
		</g>
		<g clip-path="url(#SVGID_00000111163842263709428170000009736591773007405981_)">
			
				<image overflow="visible" width="302" height="2796" xlink:href="5D5B254C.jpg"  transform="matrix(0.24 0 0 -0.24 2561.5198 1254.5601)">
			</image>
		</g>
		<g clip-path="url(#SVGID_00000111163842263709428170000009736591773007405981_)">
			
				<image overflow="visible" width="899" height="150" xlink:href="5D5B2543.jpg"  transform="matrix(0.24 0 0 -0.24 554.4 1219.28)">
			</image>
		</g>
		<g clip-path="url(#SVGID_00000111163842263709428170000009736591773007405981_)">
			
				<image overflow="visible" width="302" height="1326" xlink:href="5D5B2545.jpg"  transform="matrix(0.24 0 0 -0.24 1163.7599 1219.28)">
			</image>
		</g>
		<g clip-path="url(#SVGID_00000111163842263709428170000009736591773007405981_)">
			
				<image overflow="visible" width="302" height="2796" xlink:href="5D5B2547.jpg"  transform="matrix(0.24 0 0 -0.24 2633.2798 1219.2802)">
			</image>
		</g>
		<g clip-path="url(#SVGID_00000111163842263709428170000009736591773007405981_)">
			
				<image overflow="visible" width="750" height="150" xlink:href="5D5B2544.jpg"  transform="matrix(0.24 0 0 -0.24 590.16 1184.0001)">
			</image>
		</g>
		<g clip-path="url(#SVGID_00000111163842263709428170000009736591773007405981_)">
			
				<image overflow="visible" width="301" height="1326" xlink:href="5D5B255C.jpg"  transform="matrix(0.24 0 0 -0.24 1235.5199 1184.0001)">
			</image>
		</g>
		<g clip-path="url(#SVGID_00000111163842263709428170000009736591773007405981_)">
			
				<image overflow="visible" width="301" height="2208" xlink:href="5D5B255D.jpg"  transform="matrix(0.24 0 0 -0.24 2705.0398 1184)">
			</image>
		</g>
		<g clip-path="url(#SVGID_00000111163842263709428170000009736591773007405981_)">
			
				<image overflow="visible" width="451" height="150" xlink:href="5D5B255F.jpg"  transform="matrix(0.24 0 0 -0.24 661.92 1148.7201)">
			</image>
		</g>
		<g clip-path="url(#SVGID_00000111163842263709428170000009736591773007405981_)">
			
				<image overflow="visible" width="302" height="1326" xlink:href="5D5B25B8.jpg"  transform="matrix(0.24 0 0 -0.24 1307.0399 1148.7201)">
			</image>
		</g>
		<g clip-path="url(#SVGID_00000111163842263709428170000009736591773007405981_)">
			
				<image overflow="visible" width="451" height="1767" xlink:href="5D5B25BF.jpg"  transform="matrix(0.24 0 0 -0.24 1844.6399 1148.7201)">
			</image>
		</g>
		<g clip-path="url(#SVGID_00000111163842263709428170000009736591773007405981_)">
			
				<image overflow="visible" width="153" height="1767" xlink:href="5D5B25B9.jpg"  transform="matrix(0.24 0 0 -0.24 2776.5598 1148.7201)">
			</image>
		</g>
		<g clip-path="url(#SVGID_00000111163842263709428170000009736591773007405981_)">
			
				<image overflow="visible" width="152" height="150" xlink:href="5D5B25BB.jpg"  transform="matrix(0.24 0 0 -0.24 733.68 1113.4401)">
			</image>
		</g>
		<g clip-path="url(#SVGID_00000111163842263709428170000009736591773007405981_)">
			
				<image overflow="visible" width="451" height="591" xlink:href="5D5B25B6.jpg"  transform="matrix(0.24 0 0 -0.24 984.4799 1113.4402)">
			</image>
		</g>
		<g clip-path="url(#SVGID_00000111163842263709428170000009736591773007405981_)">
			
				<image overflow="visible" width="302" height="1326" xlink:href="5D5B25B7.jpg"  transform="matrix(0.24 0 0 -0.24 1378.7999 1113.4401)">
			</image>
		</g>
		<g clip-path="url(#SVGID_00000111163842263709428170000009736591773007405981_)">
			
				<image overflow="visible" width="152" height="1326" xlink:href="5D5B25A8.jpg"  transform="matrix(0.24 0 0 -0.24 2812.5598 1113.4401)">
			</image>
		</g>
		<g clip-path="url(#SVGID_00000111163842263709428170000009736591773007405981_)">
			
				<image overflow="visible" width="301" height="1326" xlink:href="5D5B25AB.jpg"  transform="matrix(0.24 0 0 -0.24 1558.08 1042.8801)">
			</image>
		</g>
		<g transform="matrix(1 0 0 1 0 -6.103516e-05)" clip-path="url(#SVGID_00000111163842263709428170000009736591773007405981_)">
			
				<image overflow="visible" width="302" height="1326" xlink:href="5D5B25A9.jpg"  transform="matrix(0.24 0 0 -0.24 1629.5999 1007.6001)">
			</image>
		</g>
		<g transform="matrix(1 0 0 1 0 -6.103516e-05)" clip-path="url(#SVGID_00000111163842263709428170000009736591773007405981_)">
			
				<image overflow="visible" width="152" height="444" xlink:href="5D5B25AF.jpg"  transform="matrix(0.24 0 0 -0.24 2848.3198 1007.6001)">
			</image>
		</g>
		<g clip-path="url(#SVGID_00000111163842263709428170000009736591773007405981_)">
			
				<image overflow="visible" width="152" height="150" xlink:href="5D5B2593.jpg"  transform="matrix(0.24 0 0 -0.24 1056.2399 972.3201)">
			</image>
		</g>
		<g clip-path="url(#SVGID_00000111163842263709428170000009736591773007405981_)">
			
				<image overflow="visible" width="302" height="1326" xlink:href="5D5B258D.jpg"  transform="matrix(0.24 0 0 -0.24 1701.3599 972.3201)">
			</image>
		</g>
		<g clip-path="url(#SVGID_00000111163842263709428170000009736591773007405981_)">
			
				<image overflow="visible" width="153" height="150" xlink:href="5D5B258F.jpg"  transform="matrix(0.24 0 0 -0.24 1127.7599 937.04)">
			</image>
		</g>
		<g clip-path="url(#SVGID_00000111163842263709428170000009736591773007405981_)">
			
				<image overflow="visible" width="301" height="1326" xlink:href="5D5B25F2.jpg"  transform="matrix(0.24 0 0 -0.24 1773.1199 937.04)">
			</image>
		</g>
		<g clip-path="url(#SVGID_00000111163842263709428170000009736591773007405981_)">
			
				<image overflow="visible" width="451" height="1767" xlink:href="5D5B25F3.jpg"  transform="matrix(0.24 0 0 -0.24 2310.7197 937.0401)">
			</image>
		</g>
		<g clip-path="url(#SVGID_00000111163842263709428170000009736591773007405981_)">
			
				<image overflow="visible" width="153" height="150" xlink:href="5D5B25F5.jpg"  transform="matrix(0.24 0 0 -0.24 1199.5199 901.7601)">
			</image>
		</g>
		<g clip-path="url(#SVGID_00000111163842263709428170000009736591773007405981_)">
			
				<image overflow="visible" width="451" height="591" xlink:href="5D5B25F7.jpg"  transform="matrix(0.24 0 0 -0.24 1450.5599 901.7601)">
			</image>
		</g>
		<g clip-path="url(#SVGID_00000111163842263709428170000009736591773007405981_)">
			
				<image overflow="visible" width="302" height="1326" xlink:href="5D5B25F0.jpg"  transform="matrix(0.24 0 0 -0.24 1952.1599 866.4801)">
			</image>
		</g>
		<g clip-path="url(#SVGID_00000111163842263709428170000009736591773007405981_)">
			
				<image overflow="visible" width="302" height="1326" xlink:href="5D5B25F1.jpg"  transform="matrix(0.24 0 0 -0.24 2023.9199 831.2001)">
			</image>
		</g>
		<g clip-path="url(#SVGID_00000111163842263709428170000009736591773007405981_)">
			
				<image overflow="visible" width="301" height="1326" xlink:href="5D5B25FD.jpg"  transform="matrix(0.24 0 0 -0.24 2095.6799 795.92)">
			</image>
		</g>
		<g clip-path="url(#SVGID_00000111163842263709428170000009736591773007405981_)">
			
				<image overflow="visible" width="153" height="150" xlink:href="5D5B2592.jpg"  transform="matrix(0.24 0 0 -0.24 1522.08 760.6401)">
			</image>
		</g>
		<g clip-path="url(#SVGID_00000111163842263709428170000009736591773007405981_)">
			
				<image overflow="visible" width="302" height="1326" xlink:href="5D5B259D.jpg"  transform="matrix(0.24 0 0 -0.24 2167.2 760.6401)">
			</image>
		</g>
		<g clip-path="url(#SVGID_00000111163842263709428170000009736591773007405981_)">
			
				<image overflow="visible" width="152" height="150" xlink:href="5D5B259E.jpg"  transform="matrix(0.24 0 0 -0.24 1593.84 725.3601)">
			</image>
		</g>
		<g clip-path="url(#SVGID_00000111163842263709428170000009736591773007405981_)">
			
				<image overflow="visible" width="451" height="591" xlink:href="5D5B259C.jpg"  transform="matrix(0.24 0 0 -0.24 1844.6399 725.36)">
			</image>
		</g>
		<g clip-path="url(#SVGID_00000111163842263709428170000009736591773007405981_)">
			
				<image overflow="visible" width="302" height="1326" xlink:href="5D5B2594.jpg"  transform="matrix(0.24 0 0 -0.24 2238.9597 725.3601)">
			</image>
		</g>
		<g clip-path="url(#SVGID_00000111163842263709428170000009736591773007405981_)">
			
				<image overflow="visible" width="302" height="1179" xlink:href="5D5B2595.jpg"  transform="matrix(0.24 0 0 -0.24 2418.2397 654.8)">
			</image>
		</g>
		<g clip-path="url(#SVGID_00000111163842263709428170000009736591773007405981_)">
			
				<image overflow="visible" width="152" height="297" xlink:href="5D5B2596.jpg"  transform="matrix(0.24 0 0 -0.24 2705.0398 654.8002)">
			</image>
		</g>
		<g clip-path="url(#SVGID_00000111163842263709428170000009736591773007405981_)">
			
				<image overflow="visible" width="301" height="1032" xlink:href="5D5B258B.jpg"  transform="matrix(0.24 0 0 -0.24 2489.9998 619.5201)">
			</image>
		</g>
		<g clip-path="url(#SVGID_00000111163842263709428170000009736591773007405981_)">
			
				<image overflow="visible" width="152" height="150" xlink:href="5D5B258C.jpg"  transform="matrix(0.24 0 0 -0.24 1916.3999 584.2401)">
			</image>
		</g>
		<g clip-path="url(#SVGID_00000111163842263709428170000009736591773007405981_)">
			
				<image overflow="visible" width="302" height="738" xlink:href="5D5B258E.jpg"  transform="matrix(0.24 0 0 -0.24 2561.5198 584.2401)">
			</image>
		</g>
		<g clip-path="url(#SVGID_00000111163842263709428170000009736591773007405981_)">
			
				<image overflow="visible" width="152" height="150" xlink:href="5D5B25AA.jpg"  transform="matrix(0.24 0 0 -0.24 1988.1599 548.9601)">
			</image>
		</g>
		<g clip-path="url(#SVGID_00000111163842263709428170000009736591773007405981_)">
			
				<image overflow="visible" width="302" height="297" xlink:href="5D5B25AE.jpg"  transform="matrix(0.24 0 0 -0.24 2633.2798 548.9601)">
			</image>
		</g>
		<g clip-path="url(#SVGID_00000111163842263709428170000009736591773007405981_)">
			
				<image overflow="visible" width="153" height="150" xlink:href="5D5B25AD.jpg"  transform="matrix(0.24 0 0 -0.24 2059.6799 513.6801)">
			</image>
		</g>
		<g clip-path="url(#SVGID_00000111163842263709428170000009736591773007405981_)">
			
				<image overflow="visible" width="451" height="591" xlink:href="5D5B25A4.jpg"  transform="matrix(0.24 0 0 -0.24 2310.7197 513.6801)">
			</image>
		</g>
		<g clip-path="url(#SVGID_00000111163842263709428170000009736591773007405981_)">
			
				<image overflow="visible" width="152" height="150" xlink:href="5D5B25A5.jpg"  transform="matrix(0.24 0 0 -0.24 2633.2798 478.4001)">
			</image>
		</g>
		<g clip-path="url(#SVGID_00000111163842263709428170000009736591773007405981_)">
			
				<image overflow="visible" width="153" height="150" xlink:href="5D5B25A6.jpg"  transform="matrix(0.24 0 0 -0.24 2561.5198 407.8401)">
			</image>
		</g>
	</g>
	<g>
		<defs>
			<path id="SVGID_00000072266852911248999030000017503933386435713432_" d="M924,300.3c-72.7,0-144.4,33.9-190,97.5
				c-75.1,104.8-51,250.7,53.8,325.8l33.7,24.2c41.2,29.5,88.7,43.7,135.8,43.7c72.7,0,144.4-33.9,190-97.5
				c75.1-104.8,51-250.7-53.8-325.8l-33.7-24.2C1018.6,314.5,971.1,300.3,924,300.3"/>
		</defs>
		<clipPath id="SVGID_00000075122149835869930430000014977329717239851672_">
			<use xlink:href="#SVGID_00000072266852911248999030000017503933386435713432_"  overflow="visible"/>
		</clipPath>
		<g clip-path="url(#SVGID_00000075122149835869930430000014977329717239851672_)">
			
				<image overflow="visible" width="883" height="880" xlink:href="5D5B25A7.jpg"  transform="matrix(0.24 0 0 -0.24 799.4399 791.8401)">
			</image>
		</g>
		<g transform="matrix(1 0 0 1 6.103516e-05 0)" clip-path="url(#SVGID_00000075122149835869930430000014977329717239851672_)">
			
				<image overflow="visible" width="297" height="2050" xlink:href="5D5B2657.jpg"  transform="matrix(0.24 0 0 -0.24 1010.6399 791.8401)">
			</image>
		</g>
		<g clip-path="url(#SVGID_00000075122149835869930430000014977329717239851672_)">
			
				<image overflow="visible" width="150" height="1757" xlink:href="5D5B2659.jpg"  transform="matrix(0.24 0 0 -0.24 764.16 756.8)">
			</image>
		</g>
		<g clip-path="url(#SVGID_00000075122149835869930430000014977329717239851672_)">
			
				<image overflow="visible" width="297" height="1611" xlink:href="5D5B265B.jpg"  transform="matrix(0.24 0 0 -0.24 1081.2 756.8001)">
			</image>
		</g>
		<g clip-path="url(#SVGID_00000075122149835869930430000014977329717239851672_)">
			
				<image overflow="visible" width="150" height="1611" xlink:href="5D5B2644.jpg"  transform="matrix(0.24 0 0 -0.24 728.8799 721.7601)">
			</image>
		</g>
		<g clip-path="url(#SVGID_00000075122149835869930430000014977329717239851672_)">
			
				<image overflow="visible" width="149" height="1319" xlink:href="5D5B2643.jpg"  transform="matrix(0.24 0 0 -0.24 1151.7599 721.7601)">
			</image>
		</g>
		<g clip-path="url(#SVGID_00000075122149835869930430000014977329717239851672_)">
			
				<image overflow="visible" width="149" height="1318" xlink:href="5D5B267C.jpg"  transform="matrix(0.24 0 0 -0.24 693.84 686.48)">
			</image>
		</g>
		<g clip-path="url(#SVGID_00000075122149835869930430000014977329717239851672_)">
			
				<image overflow="visible" width="150" height="441" xlink:href="5D5B267F.jpg"  transform="matrix(0.24 0 0 -0.24 1186.7999 616.4001)">
			</image>
		</g>
		<g clip-path="url(#SVGID_00000075122149835869930430000014977329717239851672_)">
			
				<image overflow="visible" width="150" height="442" xlink:href="5D5B267D.jpg"  transform="matrix(0.24 0 0 -0.24 658.5599 581.36)">
			</image>
		</g>
		<g clip-path="url(#SVGID_00000075122149835869930430000014977329717239851672_)">
			
				<image overflow="visible" width="883" height="880" xlink:href="5D5B2642.jpg"  transform="matrix(0.24 0 0 -0.24 799.4399 581.3601)">
			</image>
		</g>
		<g clip-path="url(#SVGID_00000075122149835869930430000014977329717239851672_)">
			
				<image overflow="visible" width="883" height="296" xlink:href="5D5B2645.jpg"  transform="matrix(0.24 0 0 -0.24 799.4399 370.8801)">
			</image>
		</g>
		<g clip-path="url(#SVGID_00000075122149835869930430000014977329717239851672_)">
			
				<image overflow="visible" width="150" height="149" xlink:href="5D5B2647.jpg"  transform="matrix(0.24 0 0 -0.24 1081.2 370.8801)">
			</image>
		</g>
	</g>
	<polygon fill="none" stroke="#E7E7E7" stroke-width="3" stroke-linejoin="round" points="1126.1,564.1 1127.5,506.1 1177,536.3 	
		"/>
	<polygon fill="none" stroke="#E7E7E7" stroke-linejoin="round" points="1130.7,586.9 1132.1,525.4 1184.6,557.4 	"/>
	<path fill="#E7E7E7" d="M2191.7,617.1c0.8-0.5,1.9-0.2,2.4,0.6l5.5,9l9-5.5c0.8-0.5,1.9-0.2,2.4,0.6c0.5,0.8,0.2,1.9-0.6,2.4
		l-9,5.5l5.5,9c0.5,0.8,0.2,1.9-0.6,2.4c-0.8,0.5-1.9,0.2-2.4-0.6l-5.5-9l-9,5.5c-0.8,0.5-1.9,0.2-2.4-0.6c-0.5-0.8-0.2-1.9,0.6-2.4
		l9-5.5l-5.5-9C2190.6,618.6,2190.9,617.6,2191.7,617.1z"/>
</g>
</svg>
