<?xml version="1.0" encoding="utf-8"?>
<!-- Generator: Adobe Illustrator 26.0.1, SVG Export Plug-In . SVG Version: 6.00 Build 0)  -->
<svg version="1.1" id="Layer_1" xmlns="http://www.w3.org/2000/svg" xmlns:xlink="http://www.w3.org/1999/xlink" x="0px" y="0px"
	 viewBox="0 0 39 39" style="enable-background:new 0 0 39 39;" xml:space="preserve">
<style type="text/css">
	.st0{fill:#E7E7E7;}
</style>
<path class="st0" d="M10.3,10.3c0.6-0.6,1.7-0.6,2.3,0l6.9,6.9l6.9-6.9c0.6-0.6,1.7-0.6,2.3,0c0.6,0.6,0.6,1.7,0,2.3l-6.9,6.9
	l6.9,6.9c0.6,0.6,0.6,1.7,0,2.3c-0.6,0.6-1.7,0.6-2.3,0l-6.9-6.9l-6.9,6.9c-0.6,0.6-1.7,0.6-2.3,0c-0.6-0.6-0.6-1.7,0-2.3l6.9-6.9
	l-6.9-6.9C9.7,12,9.7,10.9,10.3,10.3z"/>
</svg>
